{"asset":{"version":"2.0","generator":"source-mdl"},"scenes":[{"name":"props_foliage\\oak_tree01.mdl","nodes":[0,1]}],"nodes":[{"name":"props_foliage\\oak_tree01.mdl0","mesh":0},{"name":"props_foliage\\oak_tree01.mdl1","mesh":1}],"meshes":[{"primitives":[{"mode":4,"attributes":{"POSITION":0,"NORMAL":1,"TEXCOORD_0":2},"indices":3,"material":0}]},{"primitives":[{"mode":4,"attributes":{"POSITION":0,"NORMAL":1,"TEXCOORD_0":2},"indices":4,"material":1}]}],"accessors":[{"bufferView":0,"componentType":5126,"count":2968,"max":[585.1123657226562,531.9517211914062,1183.4556884765625],"min":[-708.5982055664062,-625.1458129882812,-13.266538619995117],"type":"VEC3"},{"bufferView":1,"componentType":5126,"count":2968,"type":"VEC3"},{"bufferView":2,"componentType":5126,"count":2968,"type":"VEC2"},{"bufferView":3,"componentType":5123,"count":780,"byteOffset":0,"type":"SCALAR"},{"bufferView":3,"componentType":5123,"count":9117,"byteOffset":1560,"type":"SCALAR"}],"bufferViews":[{"buffer":0,"byteOffset":0,"byteLength":35616},{"buffer":0,"byteOffset":35616,"byteLength":35616},{"buffer":0,"byteOffset":71232,"byteLength":23744},{"buffer":0,"byteOffset":94976,"byteLength":19794}],"buffers":[{"byteLength":114770,"uri":"data:application/octet-stream;base64,"}],"materials":[{"name":"tree_deciduous_01a_branches"},{"name":"oak_tree01"},{"name":"tree_deciduous_01a_leaves"}]}